<svg xmlns="http://www.w3.org/2000/svg" viewBox="0 0 1024 1024" role="img" aria-labelledby="title desc">
  <title id="title">Codex Conductor logo</title>
  <desc id="desc">A central orchestration node routing work to three worker nodes.</desc>
  <defs>
    <linearGradient id="bg" x1="160" y1="120" x2="864" y2="904" gradientUnits="userSpaceOnUse">
      <stop offset="0" stop-color="#151923"/>
      <stop offset="0.55" stop-color="#0E3334"/>
      <stop offset="1" stop-color="#102131"/>
    </linearGradient>
    <linearGradient id="route" x1="248" y1="256" x2="808" y2="768" gradientUnits="userSpaceOnUse">
      <stop offset="0" stop-color="#38E6C5"/>
      <stop offset="1" stop-color="#F6C453"/>
    </linearGradient>
    <filter id="shadow" x="-20%" y="-20%" width="140%" height="140%">
      <feDropShadow dx="0" dy="24" stdDeviation="28" flood-color="#000000" flood-opacity="0.28"/>
    </filter>
  </defs>

  <rect x="64" y="64" width="896" height="896" rx="216" fill="url(#bg)"/>
  <path d="M262 332C354 214 520 190 640 282" fill="none" stroke="#FFFFFF" stroke-width="28" stroke-linecap="round" opacity="0.16"/>
  <path d="M258 332C360 230 508 224 621 316" fill="none" stroke="url(#route)" stroke-width="34" stroke-linecap="round"/>
  <path d="M616 346C752 364 836 464 826 590" fill="none" stroke="url(#route)" stroke-width="34" stroke-linecap="round"/>
  <path d="M602 634C684 724 782 745 842 676" fill="none" stroke="url(#route)" stroke-width="34" stroke-linecap="round"/>
  <path d="M288 706C376 798 528 806 632 706" fill="none" stroke="#FFFFFF" stroke-width="28" stroke-linecap="round" opacity="0.13"/>

  <g filter="url(#shadow)">
    <circle cx="286" cy="326" r="72" fill="#17212D" stroke="#38E6C5" stroke-width="24"/>
    <circle cx="666" cy="310" r="72" fill="#17212D" stroke="#38E6C5" stroke-width="24"/>
    <circle cx="838" cy="630" r="72" fill="#17212D" stroke="#F6C453" stroke-width="24"/>
    <circle cx="286" cy="710" r="72" fill="#17212D" stroke="#F6C453" stroke-width="24"/>
  </g>

  <g filter="url(#shadow)">
    <circle cx="512" cy="512" r="154" fill="#F7F3E8"/>
    <path d="M574 410C546 389 511 380 474 387C410 399 366 456 374 523C382 594 446 642 519 634C552 630 582 617 606 595" fill="none" stroke="#132127" stroke-width="58" stroke-linecap="round"/>
    <circle cx="512" cy="512" r="38" fill="#14B8A6"/>
  </g>
</svg>
